<?xml version="1.0" encoding="iso-8859-1"?>
<!-- Generator: Adobe Illustrator 16.0.0, SVG Export Plug-In . SVG Version: 6.00 Build 0)  -->
<!DOCTYPE svg PUBLIC "-//W3C//DTD SVG 1.1//EN" "http://www.w3.org/Graphics/SVG/1.1/DTD/svg11.dtd">
<svg version="1.1" id="Capa_1" xmlns="http://www.w3.org/2000/svg" xmlns:xlink="http://www.w3.org/1999/xlink" x="0px" y="0px"
	 width="557.522px" height="557.523px" viewBox="0 0 557.522 557.523" style="enable-background:new 0 0 557.522 557.523;"
	 xml:space="preserve">
<g>
	<g>
		<path d="M451.685,83.672H104.069c-24.041,0-43.605,19.555-43.605,43.605v145.044c0,24.04,19.555,43.605,43.605,43.605h347.625
			c24.04,0,43.596-19.556,43.596-43.605V127.277C495.29,103.237,475.734,83.672,451.685,83.672z M488.118,272.321
			c0,20.091-16.343,36.434-36.424,36.434H104.069c-20.091,0-36.433-16.343-36.433-36.434V127.277
			c0-20.091,16.342-36.433,36.433-36.433h347.625c20.081,0,36.424,16.342,36.424,36.433V272.321z"/>
		<path d="M70.973,57.939C31.843,57.939,0,89.773,0,128.912v141.783c0,1.731,0.086,3.452,0.229,5.145
			c0.239,2.84,0.603,9.41,0.603,14.698v127.439c0,45.001,36.242,81.606,80.774,81.606h393.468c45.002,0,81.606-36.605,81.606-81.606
			V290.585c0-5.279,0.363-11.867,0.612-14.727c0.144-1.711,0.229-3.433,0.229-5.183V128.912c0-39.13-31.843-70.973-70.973-70.973
			H70.973z M475.084,485.23H81.606c-36.634,0-66.431-30.17-66.431-67.263v-94.009c0-5.278,2.601-6.14,6.378-2.438
			c0.727,0.707,1.463,1.405,2.209,2.075c3.921,3.538,7.526,10.174,7.526,15.462v85.996c0,25.437,20.693,46.12,46.12,46.12h385.226
			c25.427,0,46.12-20.693,46.12-46.12v-77.438c0-5.278,4.103-10.844,8.845-13.167c6.8-3.328,12.986-7.708,18.36-12.929
			c3.787-3.682,6.388-2.831,6.388,2.457v94C542.347,455.06,512.168,485.23,475.084,485.23z M38.451,343.265
			c0-5.278,3.777-7.525,8.75-5.737c7.43,2.668,15.424,4.141,23.763,4.141H486.55c2.553,0,5.067-0.144,7.554-0.411
			c4.16-0.459,7.469,3.06,7.469,8.348v75.467c0,21.478-17.471,38.948-38.948,38.948H77.399c-21.478,0-38.948-17.471-38.948-38.948
			V343.265z M543.188,270.686c0,31.221-25.408,56.629-56.629,56.629H70.973c-31.221,0-56.629-25.408-56.629-56.629V128.912
			c0-31.222,25.408-56.629,56.629-56.629H486.56c31.221,0,56.629,25.408,56.629,56.629V270.686z"/>
		<path d="M429.031,103.495H111.719c-1.979,0-3.586,1.607-3.586,3.586v185.427c0,1.979,1.606,3.586,3.586,3.586h317.312
			c1.979,0,3.586-1.606,3.586-3.586V107.081C432.617,105.102,431.011,103.495,429.031,103.495z M415.883,288.931H124.867
			c-5.278,0-9.562-4.284-9.562-9.562v-159.14c0-5.278,4.284-9.562,9.562-9.562h291.016c5.278,0,9.562,4.284,9.562,9.562v159.13
			C425.445,284.647,421.161,288.931,415.883,288.931z"/>
		<path d="M81.568,380.3h20.597c7.182,0,13.024-5.843,13.024-13.023v-3.988c0-7.181-5.843-13.023-13.024-13.023H81.568
			c-7.182,0-13.024,5.843-13.024,13.023v3.988C68.544,374.458,74.387,380.3,81.568,380.3z"/>
		<path d="M81.568,418.847h20.597c7.182,0,13.024-5.843,13.024-13.024v-3.987c0-7.182-5.843-13.024-13.024-13.024H81.568
			c-7.182,0-13.024,5.843-13.024,13.024v3.987C68.544,413.004,74.387,418.847,81.568,418.847z"/>
		<path d="M81.568,455.892h20.597c7.182,0,13.024-5.843,13.024-13.024v-3.987c0-7.182-5.843-13.024-13.024-13.024H81.568
			c-7.182,0-13.024,5.843-13.024,13.024v3.987C68.544,450.04,74.387,455.892,81.568,455.892z"/>
		<path d="M139.134,380.3h20.607c7.181,0,13.024-5.843,13.024-13.023v-3.988c0-7.181-5.843-13.023-13.024-13.023h-20.607
			c-7.181,0-13.024,5.843-13.024,13.023v3.988C126.12,374.458,131.953,380.3,139.134,380.3z"/>
		<path d="M139.134,418.847h20.607c7.181,0,13.024-5.843,13.024-13.024v-3.987c0-7.182-5.843-13.024-13.024-13.024h-20.607
			c-7.181,0-13.024,5.843-13.024,13.024v3.987C126.12,413.004,131.953,418.847,139.134,418.847z"/>
		<path d="M139.134,455.892h20.607c7.181,0,13.024-5.843,13.024-13.024v-3.987c0-7.182-5.843-13.024-13.024-13.024h-20.607
			c-7.181,0-13.024,5.843-13.024,13.024v3.987C126.12,450.04,131.953,455.892,139.134,455.892z"/>
		<path d="M196.749,380.3h20.607c7.182,0,13.024-5.843,13.024-13.023v-3.988c0-7.181-5.843-13.023-13.024-13.023h-20.607
			c-7.182,0-13.024,5.843-13.024,13.023v3.988C183.724,374.458,189.567,380.3,196.749,380.3z"/>
		<path d="M196.749,418.847h20.607c7.182,0,13.024-5.843,13.024-13.024v-3.987c0-7.182-5.843-13.024-13.024-13.024h-20.607
			c-7.182,0-13.024,5.843-13.024,13.024v3.987C183.724,413.004,189.567,418.847,196.749,418.847z"/>
		<path d="M196.749,455.892h20.607c7.182,0,13.024-5.843,13.024-13.024v-3.987c0-7.182-5.843-13.024-13.024-13.024h-20.607
			c-7.182,0-13.024,5.843-13.024,13.024v3.987C183.724,450.04,189.567,455.892,196.749,455.892z"/>
		<path d="M254.314,380.3h20.598c7.182,0,13.024-5.843,13.024-13.023v-3.988c0-7.181-5.843-13.023-13.024-13.023h-20.598
			c-7.181,0-13.024,5.843-13.024,13.023v3.988C241.291,374.458,247.133,380.3,254.314,380.3z"/>
		<path d="M254.314,418.847h20.598c7.182,0,13.024-5.843,13.024-13.024v-3.987c0-7.182-5.843-13.024-13.024-13.024h-20.598
			c-7.181,0-13.024,5.843-13.024,13.024v3.987C241.291,413.004,247.133,418.847,254.314,418.847z"/>
		<path d="M254.314,455.892h20.598c7.182,0,13.024-5.843,13.024-13.024v-3.987c0-7.182-5.843-13.024-13.024-13.024h-20.598
			c-7.181,0-13.024,5.843-13.024,13.024v3.987C241.291,450.04,247.133,455.892,254.314,455.892z"/>
		<path d="M311.489,380.3h20.598c7.181,0,13.023-5.843,13.023-13.023v-3.988c0-7.181-5.843-13.023-13.023-13.023h-20.598
			c-7.182,0-13.024,5.843-13.024,13.023v3.988C298.465,374.458,304.308,380.3,311.489,380.3z"/>
		<path d="M311.489,418.847h20.598c7.181,0,13.023-5.843,13.023-13.024v-3.987c0-7.182-5.843-13.024-13.023-13.024h-20.598
			c-7.182,0-13.024,5.843-13.024,13.024v3.987C298.465,413.004,304.308,418.847,311.489,418.847z"/>
		<path d="M311.489,455.892h20.598c7.181,0,13.023-5.843,13.023-13.024v-3.987c0-7.182-5.843-13.024-13.023-13.024h-20.598
			c-7.182,0-13.024,5.843-13.024,13.024v3.987C298.465,450.04,304.308,455.892,311.489,455.892z"/>
		<path d="M369.228,380.3h20.598c7.181,0,13.023-5.843,13.023-13.023v-3.988c0-7.181-5.843-13.023-13.023-13.023h-20.598
			c-7.182,0-13.024,5.843-13.024,13.023v3.988C356.203,374.458,362.046,380.3,369.228,380.3z"/>
		<path d="M369.228,418.847h20.598c7.181,0,13.023-5.843,13.023-13.024v-3.987c0-7.182-5.843-13.024-13.023-13.024h-20.598
			c-7.182,0-13.024,5.843-13.024,13.024v3.987C356.203,413.004,362.046,418.847,369.228,418.847z"/>
		<path d="M369.228,455.892h20.598c7.181,0,13.023-5.843,13.023-13.024v-3.987c0-7.182-5.843-13.024-13.023-13.024h-20.598
			c-7.182,0-13.024,5.843-13.024,13.024v3.987C356.203,450.04,362.046,455.892,369.228,455.892z"/>
		<path d="M427.846,380.3h20.598c7.181,0,13.023-5.843,13.023-13.023v-3.988c0-7.181-5.843-13.023-13.023-13.023h-20.598
			c-7.182,0-13.024,5.843-13.024,13.023v3.988C414.812,374.458,420.664,380.3,427.846,380.3z"/>
		<path d="M427.846,418.847h20.598c7.181,0,13.023-5.843,13.023-13.024v-3.987c0-7.182-5.843-13.024-13.023-13.024h-20.598
			c-7.182,0-13.024,5.843-13.024,13.024v3.987C414.812,413.004,420.664,418.847,427.846,418.847z"/>
		<path d="M427.846,455.892h20.598c7.181,0,13.023-5.843,13.023-13.024v-3.987c0-7.182-5.843-13.024-13.023-13.024h-20.598
			c-7.182,0-13.024,5.843-13.024,13.024v3.987C414.812,450.04,420.664,455.892,427.846,455.892z"/>
	</g>
</g>
<g>
</g>
<g>
</g>
<g>
</g>
<g>
</g>
<g>
</g>
<g>
</g>
<g>
</g>
<g>
</g>
<g>
</g>
<g>
</g>
<g>
</g>
<g>
</g>
<g>
</g>
<g>
</g>
<g>
</g>
</svg>
